<svg xmlns="http://www.w3.org/2000/svg" xmlns:xlink="http://www.w3.org/1999/xlink" width="500" zoomAndPan="magnify" viewBox="0 0 375 374.999991" height="500" preserveAspectRatio="xMidYMid meet" version="1.0"><defs><clipPath id="dac39027cc"><path d="M 115.5 115 L 259.5 115 L 259.5 260 L 115.5 260 Z M 115.5 115 " clip-rule="nonzero"/></clipPath></defs><rect x="-37.5" width="450" fill="#ffffff" y="-37.499999" height="449.999989" fill-opacity="1"/><rect x="-37.5" width="450" fill="#ffffff" y="-37.499999" height="449.999989" fill-opacity="1"/><g clip-path="url(#dac39027cc)"><path fill="#000000" d="M 187.5 115.5 C 147.734375 115.5 115.5 147.734375 115.5 187.5 C 115.5 227.265625 147.734375 259.5 187.5 259.5 C 227.265625 259.5 259.5 227.265625 259.5 187.5 C 259.5 147.734375 227.265625 115.5 187.5 115.5 Z M 127.5 187.5 C 127.5 154.363281 154.363281 127.5 187.5 127.5 C 220.636719 127.5 247.5 154.363281 247.5 187.5 C 247.5 214.503906 229.664062 237.339844 205.128906 244.867188 C 205.796875 232.742188 205.570312 225.230469 204.4375 222.332031 C 203.246094 219.277344 202.273438 218.023438 201.691406 217.273438 C 201.308594 216.78125 201.09375 216.503906 201.09375 216.074219 C 201.09375 215.355469 201.601562 214.832031 202.613281 214.507812 C 211.453125 212.554688 217.382812 207.121094 220.398438 198.210938 C 224.578125 185.863281 218.613281 176.882812 216.199219 173.25 C 216 172.949219 215.824219 172.6875 215.683594 172.460938 C 213.804688 169.5 216.265625 162.289062 219.199219 156.519531 C 209.214844 154.519531 205.402344 159.15625 203.21875 161.816406 C 202.324219 162.902344 201.703125 163.660156 201.042969 163.5 C 200.453125 163.355469 199.816406 163.078125 199.054688 162.742188 C 196.875 161.785156 193.660156 160.371094 187.5 160.371094 C 179.859375 160.371094 174.796875 163.039062 174.023438 163.445312 C 173.953125 163.484375 173.917969 163.5 173.917969 163.5 C 169.902344 157.902344 164.199219 155.574219 156.808594 156.519531 C 158.84375 164.652344 158.996094 169.96875 157.269531 172.460938 C 154.671875 176.199219 149.808594 184.902344 153.585938 198.210938 C 157.359375 211.519531 171.105469 214.507812 173.722656 214.507812 L 173.738281 214.511719 C 173.949219 214.558594 175.871094 214.972656 175.292969 216.601562 C 175.179688 217.03125 175.105469 217.621094 175.019531 218.285156 C 174.746094 220.417969 174.378906 223.3125 172.332031 224.253906 C 169.652344 225.488281 163.742188 226.164062 161.269531 224.621094 C 160.445312 224.109375 159.851562 223.035156 159.140625 221.742188 C 157.710938 219.152344 155.800781 215.683594 150.574219 214.066406 C 142.734375 211.648438 143.226562 214.847656 145.179688 215.632812 C 145.613281 215.804688 146.183594 215.96875 146.835938 216.152344 C 149.144531 216.804688 152.464844 217.746094 154.167969 220.484375 C 154.664062 221.289062 155.179688 222.167969 155.703125 223.066406 C 157.472656 226.101562 159.371094 229.351562 161.269531 230.597656 C 162.90625 231.675781 166.832031 232.109375 173.050781 231.894531 C 172.777344 237.761719 172.632812 242.34375 172.617188 245.640625 C 146.679688 239.019531 127.5 215.5 127.5 187.5 Z M 127.5 187.5 " fill-opacity="0.85" fill-rule="evenodd"/></g></svg>