<svg xmlns="http://www.w3.org/2000/svg" xmlns:xlink="http://www.w3.org/1999/xlink" width="500" zoomAndPan="magnify" viewBox="0 0 375 374.999991" height="500" preserveAspectRatio="xMidYMid meet" version="1.0"><defs><clipPath id="087d62852d"><path d="M 112.5 112.5 L 262.5 112.5 L 262.5 262.5 L 112.5 262.5 Z M 112.5 112.5 " clip-rule="nonzero"/></clipPath></defs><g clip-path="url(#087d62852d)"><path fill="#2197bd" d="M 262.5 239.691406 C 262.5 252.28125 252.296875 262.484375 239.707031 262.484375 L 135.296875 262.484375 C 122.710938 262.484375 112.507812 252.28125 112.507812 239.691406 L 112.507812 135.285156 C 112.507812 122.695312 122.710938 112.492188 135.296875 112.492188 L 239.707031 112.492188 C 252.296875 112.492188 262.5 122.695312 262.5 135.285156 Z M 262.5 239.691406 " fill-opacity="1" fill-rule="nonzero"/></g><path fill="#ffffff" d="M 171.816406 166.003906 C 171.816406 166.742188 171.746094 167.46875 171.601562 168.191406 C 171.457031 168.914062 171.246094 169.613281 170.964844 170.292969 C 170.683594 170.972656 170.335938 171.617188 169.929688 172.230469 C 169.519531 172.839844 169.054688 173.40625 168.535156 173.929688 C 168.015625 174.449219 167.449219 174.914062 166.835938 175.320312 C 166.226562 175.730469 165.578125 176.074219 164.898438 176.355469 C 164.21875 176.636719 163.519531 176.851562 162.796875 176.996094 C 162.074219 177.136719 161.347656 177.210938 160.613281 177.210938 C 159.875 177.210938 159.148438 177.136719 158.425781 176.996094 C 157.703125 176.851562 157.003906 176.636719 156.324219 176.355469 C 155.644531 176.074219 155 175.730469 154.386719 175.320312 C 153.773438 174.914062 153.207031 174.449219 152.6875 173.929688 C 152.167969 173.40625 151.703125 172.839844 151.292969 172.230469 C 150.886719 171.617188 150.539062 170.972656 150.257812 170.292969 C 149.976562 169.613281 149.765625 168.914062 149.621094 168.191406 C 149.476562 167.46875 149.40625 166.742188 149.40625 166.003906 C 149.40625 165.269531 149.476562 164.539062 149.621094 163.820312 C 149.765625 163.097656 149.976562 162.394531 150.257812 161.714844 C 150.539062 161.035156 150.886719 160.390625 151.292969 159.78125 C 151.703125 159.167969 152.167969 158.601562 152.6875 158.082031 C 153.207031 157.5625 153.773438 157.097656 154.386719 156.6875 C 155 156.28125 155.644531 155.933594 156.324219 155.652344 C 157.003906 155.371094 157.703125 155.160156 158.425781 155.015625 C 159.148438 154.871094 159.875 154.800781 160.613281 154.800781 C 161.347656 154.800781 162.074219 154.871094 162.796875 155.015625 C 163.519531 155.160156 164.21875 155.371094 164.898438 155.652344 C 165.578125 155.933594 166.226562 156.28125 166.835938 156.6875 C 167.449219 157.097656 168.015625 157.5625 168.535156 158.082031 C 169.054688 158.601562 169.519531 159.167969 169.929688 159.78125 C 170.335938 160.390625 170.683594 161.035156 170.964844 161.714844 C 171.246094 162.394531 171.457031 163.097656 171.601562 163.820312 C 171.746094 164.539062 171.816406 165.269531 171.816406 166.003906 Z M 171.816406 166.003906 " fill-opacity="1" fill-rule="nonzero"/><path fill="#ffffff" d="M 150.953125 185.46875 L 170.203125 185.46875 L 170.203125 247.398438 L 150.953125 247.398438 Z M 150.953125 185.46875 " fill-opacity="1" fill-rule="nonzero"/><path fill="#ffffff" d="M 182.308594 185.46875 L 200.632812 185.46875 L 200.632812 247.398438 L 182.308594 247.398438 Z M 182.308594 185.46875 " fill-opacity="1" fill-rule="nonzero"/><path fill="#ffffff" d="M 183.101562 218.441406 L 201.421875 218.441406 L 201.421875 247.398438 L 183.101562 247.398438 Z M 183.101562 218.441406 " fill-opacity="1" fill-rule="nonzero"/><path fill="#ffffff" d="M 201.421875 218.441406 C 201.421875 218.441406 201.136719 210.410156 203.253906 206.234375 C 203.253906 206.234375 205.371094 201.089844 212.03125 201.058594 C 212.03125 201.058594 219.839844 199.695312 222.078125 207.445312 C 222.078125 207.445312 222.925781 211.742188 222.925781 213.558594 C 222.925781 215.375 222.988281 247.398438 222.988281 247.398438 L 242.175781 247.398438 L 242.175781 211.925781 C 242.175781 211.925781 243.570312 191.886719 231.542969 186.398438 C 231.542969 186.398438 211.769531 177.519531 201.035156 193.824219 C 201.035156 193.824219 198.695312 195.4375 198.371094 190.917969 C 198.046875 186.398438 195.304688 197.859375 195.222656 198.101562 C 195.140625 198.34375 198.371094 220.945312 198.371094 220.945312 Z M 201.421875 218.441406 " fill-opacity="1" fill-rule="nonzero"/></svg>